<?xml version="1.0" encoding="UTF-8" standalone="no"?>
<svg xmlns="http://www.w3.org/2000/svg" width="500" height="400" viewBox="0 0 500 400">
  <!-- Background elements -->
  <rect x="0" y="0" width="500" height="400" fill="none"/>
  
  <!-- Washing machine -->
  <rect x="150" y="100" width="200" height="250" rx="10" ry="10" fill="#f5f9ff" stroke="#1a73e8" stroke-width="3"/>
  <rect x="170" y="130" width="160" height="160" rx="80" ry="80" fill="white" stroke="#1a73e8" stroke-width="2"/>
  <circle cx="250" cy="210" r="70" fill="none" stroke="#64b5f6" stroke-width="3" stroke-dasharray="6,6">
    <animateTransform attributeName="transform" type="rotate" from="0 250 210" to="360 250 210" dur="10s" repeatCount="indefinite"/>
  </circle>
  
  <!-- Control panel -->
  <rect x="190" y="310" width="120" height="20" rx="5" ry="5" fill="#64b5f6"/>
  <circle cx="200" cy="320" r="5" fill="white"/>
  <circle cx="220" cy="320" r="5" fill="white"/>
  <rect x="235" y="315" width="30" height="10" rx="2" ry="2" fill="white"/>
  <rect x="275" y="315" width="30" height="10" rx="2" ry="2" fill="white"/>
  
  <!-- Laundry items -->
  <path d="M100,150 Q120,120 140,150 T180,150" stroke="#0d47a1" stroke-width="2" fill="#e3f2fd"/>
  <path d="M60,200 Q90,170 120,200 T150,200" stroke="#0d47a1" stroke-width="2" fill="#bbdefb"/>
  <path d="M80,250 Q110,220 140,250 T200,250" stroke="#0d47a1" stroke-width="2" fill="#90caf9"/>
  
  <!-- Bubbles -->
  <circle cx="90" cy="170" r="5" fill="white" opacity="0.8">
    <animate attributeName="cy" from="170" to="140" dur="3s" repeatCount="indefinite"/>
    <animate attributeName="opacity" from="0.8" to="0" dur="3s" repeatCount="indefinite"/>
  </circle>
  <circle cx="110" cy="190" r="7" fill="white" opacity="0.8">
    <animate attributeName="cy" from="190" to="150" dur="4s" repeatCount="indefinite"/>
    <animate attributeName="opacity" from="0.8" to="0" dur="4s" repeatCount="indefinite"/>
  </circle>
  <circle cx="130" cy="180" r="4" fill="white" opacity="0.8">
    <animate attributeName="cy" from="180" to="145" dur="3.5s" repeatCount="indefinite"/>
    <animate attributeName="opacity" from="0.8" to="0" dur="3.5s" repeatCount="indefinite"/>
  </circle>
  
  <!-- Delivery elements -->
  <rect x="330" y="280" width="80" height="40" rx="10" ry="10" fill="#1a73e8"/>
  <circle cx="350" cy="320" r="10" fill="#0d47a1"/>
  <circle cx="390" cy="320" r="10" fill="#0d47a1"/>
  <path d="M330,280 L350,260 L390,260 L410,280" fill="#1a73e8"/>
  <rect x="350" y="260" width="40" height="10" fill="#1a73e8"/>
  
  <!-- Package -->
  <rect x="365" y="230" width="30" height="30" fill="#bbdefb" stroke="#0d47a1" stroke-width="1"/>
  <line x1="365" y1="230" x2="395" y2="260" stroke="#0d47a1" stroke-width="1"/>
  <line x1="395" y1="230" x2="365" y2="260" stroke="#0d47a1" stroke-width="1"/>
</svg>
